<svg width="51" height="51" viewBox="0 0 51 51" fill="none" xmlns="http://www.w3.org/2000/svg">
<path d="M27.625 42.4998C22.5527 42.4998 17.6882 40.4849 14.1016 36.8983C10.5149 33.3116 8.5 28.4471 8.5 23.3748C8.50232 22.1266 8.62328 20.8814 8.86125 19.6561C8.91459 19.3807 9.02194 19.1186 9.17711 18.8848C9.33227 18.6511 9.53218 18.4504 9.76529 18.2944C9.9984 18.1383 10.2601 18.0299 10.5353 17.9755C10.8105 17.9211 11.0938 17.9217 11.3687 17.9773C11.9167 18.0902 12.398 18.4145 12.7083 18.8799C13.0186 19.3454 13.1328 19.9144 13.0263 20.4636C12.8491 21.4241 12.7567 22.3982 12.75 23.3748C12.7498 26.8731 13.9826 30.2595 16.2317 32.939C18.4808 35.6184 21.6024 37.4195 25.0477 38.0256C28.4931 38.6317 32.0419 38.0041 35.0704 36.2531C38.0989 34.5021 40.4134 31.7398 41.6072 28.4515C42.8009 25.1632 42.7975 21.5594 41.5976 18.2733C40.3976 14.9873 38.0779 12.2293 35.0461 10.484C32.0143 8.7387 28.4644 8.1178 25.0201 8.73041C21.5759 9.34301 18.4578 11.1499 16.2138 13.8336C16.0352 14.0485 15.816 14.2261 15.5687 14.3562C15.3215 14.4864 15.0511 14.5666 14.7728 14.5923C14.4946 14.6179 14.2141 14.5885 13.9472 14.5057C13.6803 14.423 13.4324 14.2884 13.2175 14.1098C13.0026 13.9312 12.825 13.7121 12.6949 13.4648C12.5647 13.2176 12.4845 12.9472 12.4588 12.6689C12.4332 12.3907 12.4626 12.1102 12.5454 11.8433C12.6281 11.5764 12.7627 11.3285 12.9413 11.1136C15.0039 8.64452 17.656 6.73569 20.6522 5.56378C23.6485 4.39187 26.8919 3.99475 30.0823 4.40919C33.2728 4.82364 36.3071 6.03624 38.9045 7.93476C41.5019 9.83328 43.5783 12.3564 44.9416 15.2705C46.305 18.1846 46.9111 21.3955 46.704 24.6061C46.4969 27.8167 45.4832 30.9231 43.7567 33.6379C42.0302 36.3527 39.6468 38.588 36.827 40.1371C34.0072 41.6861 30.8423 42.4988 27.625 42.4998Z" fill="#05366C"/>
<path d="M27.625 25.4998C24.8071 25.4998 22.1046 24.3804 20.112 22.3879C18.1194 20.3953 17 17.6928 17 14.8748C17 12.0569 18.1194 9.35441 20.112 7.36184C22.1046 5.36926 24.8071 4.24985 27.625 4.24985C28.1886 4.24985 28.7291 4.47373 29.1276 4.87225C29.5261 5.27076 29.75 5.81126 29.75 6.37485C29.75 6.93843 29.5261 7.47893 29.1276 7.87745C28.7291 8.27596 28.1886 8.49985 27.625 8.49985C25.9342 8.49985 24.3127 9.1715 23.1172 10.367C21.9216 11.5626 21.25 13.1841 21.25 14.8748C21.25 16.5656 21.9216 18.1871 23.1172 19.3827C24.3127 20.5782 25.9342 21.2498 27.625 21.2498C28.1886 21.2498 28.7291 21.4737 29.1276 21.8722C29.5261 22.2708 29.75 22.8113 29.75 23.3748C29.75 23.9384 29.5261 24.4789 29.1276 24.8774C28.7291 25.276 28.1886 25.4998 27.625 25.4998Z" fill="#05366C"/>
<path d="M27.625 42.4998C27.0614 42.4998 26.5209 42.276 26.1224 41.8775C25.7239 41.4789 25.5 40.9384 25.5 40.3748C25.5 39.8113 25.7239 39.2708 26.1224 38.8722C26.5209 38.4737 27.0614 38.2498 27.625 38.2498C29.3158 38.2498 30.9373 37.5782 32.1328 36.3827C33.3284 35.1871 34 33.5656 34 31.8748C34 30.1841 33.3284 28.5626 32.1328 27.367C30.9373 26.1715 29.3158 25.4998 27.625 25.4998C27.0614 25.4998 26.5209 25.276 26.1224 24.8774C25.7239 24.4789 25.5 23.9384 25.5 23.3748C25.5 22.8113 25.7239 22.2708 26.1224 21.8722C26.5209 21.4737 27.0614 21.2498 27.625 21.2498C30.4429 21.2498 33.1454 22.3693 35.138 24.3618C37.1306 26.3544 38.25 29.0569 38.25 31.8748C38.25 34.6928 37.1306 37.3953 35.138 39.3879C33.1454 41.3804 30.4429 42.4998 27.625 42.4998Z" fill="#05366C"/>
<path d="M19.125 33.9998C16.3071 33.9998 13.6046 32.8804 11.612 30.8879C9.61942 28.8953 8.5 26.1928 8.5 23.3748C8.5 22.8113 8.72388 22.2708 9.1224 21.8722C9.52091 21.4737 10.0614 21.2498 10.625 21.2498C11.1886 21.2498 11.7291 21.4737 12.1276 21.8722C12.5261 22.2708 12.75 22.8113 12.75 23.3748C12.75 25.0656 13.4217 26.6871 14.6172 27.8827C15.8127 29.0782 17.4342 29.7498 19.125 29.7498C20.8158 29.7498 22.4373 29.0782 23.6328 27.8827C24.8284 26.6871 25.5 25.0656 25.5 23.3748C25.5 22.8113 25.7239 22.2708 26.1224 21.8722C26.5209 21.4737 27.0614 21.2498 27.625 21.2498C28.1886 21.2498 28.7291 21.4737 29.1276 21.8722C29.5261 22.2708 29.75 22.8113 29.75 23.3748C29.75 24.7701 29.4752 26.1518 28.9412 27.4409C28.4073 28.7299 27.6246 29.9012 26.638 30.8879C25.6514 31.8745 24.4801 32.6571 23.191 33.1911C21.9019 33.725 20.5203 33.9998 19.125 33.9998Z" fill="#05366C"/>
<path d="M44.625 25.4998C44.0614 25.4998 43.5209 25.276 43.1224 24.8774C42.7239 24.4789 42.5 23.9384 42.5 23.3748C42.5 21.6841 41.8284 20.0626 40.6328 18.867C39.4373 17.6715 37.8158 16.9998 36.125 16.9998C34.4342 16.9998 32.8127 17.6715 31.6172 18.867C30.4216 20.0626 29.75 21.6841 29.75 23.3748C29.75 23.9384 29.5261 24.4789 29.1276 24.8774C28.7291 25.276 28.1886 25.4998 27.625 25.4998C27.0614 25.4998 26.5209 25.276 26.1224 24.8774C25.7239 24.4789 25.5 23.9384 25.5 23.3748C25.5 20.5569 26.6194 17.8544 28.612 15.8618C30.6046 13.8693 33.3071 12.7498 36.125 12.7498C38.9429 12.7498 41.6454 13.8693 43.638 15.8618C45.6306 17.8544 46.75 20.5569 46.75 23.3748C46.75 23.9384 46.5261 24.4789 46.1276 24.8774C45.7291 25.276 45.1886 25.4998 44.625 25.4998Z" fill="#05366C"/>
<path d="M5.31249 47.8123C5.03283 47.814 4.7556 47.7604 4.49669 47.6546C4.23779 47.5489 4.0023 47.393 3.80374 47.1961C3.60457 46.9985 3.44648 46.7635 3.3386 46.5046C3.23071 46.2456 3.17517 45.9679 3.17517 45.6873C3.17517 45.4068 3.23071 45.1291 3.3386 44.8701C3.44648 44.6112 3.60457 44.3761 3.80374 44.1786L13.3662 34.6161C13.7664 34.216 14.3091 33.9912 14.875 33.9912C15.4409 33.9912 15.9836 34.216 16.3837 34.6161C16.7839 35.0162 17.0087 35.559 17.0087 36.1248C17.0087 36.6907 16.7839 37.2335 16.3837 37.6336L6.82124 47.1961C6.62268 47.393 6.3872 47.5489 6.12829 47.6546C5.86939 47.7604 5.59216 47.814 5.31249 47.8123Z" fill="#05366C"/>
</svg>
