<svg width="104" height="28" viewBox="0 0 104 28" fill="none" xmlns="http://www.w3.org/2000/svg">
<path d="M21.5968 7.4192H25.4944V8.6176H21.5968V7.4192ZM21.7088 10.7792H26.1328V12H20.2528V4.16H25.976V5.3808H21.7088V10.7792ZM27.7559 12V4.16H28.9543L33.8711 10.1968H33.2775V4.16H34.7223V12H33.5239L28.6071 5.9632H29.2007V12H27.7559ZM38.1671 7.4192H42.0647V8.6176H38.1671V7.4192ZM38.2791 10.7792H42.7031V12H36.8231V4.16H42.5463V5.3808H38.2791V10.7792ZM44.3263 12V4.16H47.5519C48.2463 4.16 48.8399 4.272 49.3327 4.496C49.8329 4.72 50.2175 5.04107 50.4863 5.4592C50.7551 5.87733 50.8895 6.37387 50.8895 6.9488C50.8895 7.52373 50.7551 8.02027 50.4863 8.4384C50.2175 8.84907 49.8329 9.1664 49.3327 9.3904C48.8399 9.60693 48.2463 9.7152 47.5519 9.7152H45.1327L45.7823 9.0544V12H44.3263ZM49.4559 12L47.4735 9.1552H49.0303L51.0239 12H49.4559ZM45.7823 9.2112L45.1327 8.5168H47.4847C48.1268 8.5168 48.6084 8.37867 48.9295 8.1024C49.258 7.82613 49.4223 7.4416 49.4223 6.9488C49.4223 6.44853 49.258 6.064 48.9295 5.7952C48.6084 5.5264 48.1268 5.392 47.4847 5.392H45.1327L45.7823 4.6752V9.2112ZM56.1808 12.112C55.5686 12.112 55.0048 12.0149 54.4896 11.8208C53.9819 11.6192 53.5376 11.3392 53.1568 10.9808C52.776 10.6149 52.4811 10.1856 52.272 9.6928C52.063 9.2 51.9584 8.6624 51.9584 8.08C51.9584 7.4976 52.063 6.96 52.272 6.4672C52.4811 5.9744 52.776 5.5488 53.1568 5.1904C53.5451 4.82453 53.9968 4.54453 54.512 4.3504C55.0272 4.1488 55.591 4.048 56.2032 4.048C56.8678 4.048 57.4651 4.15627 57.9952 4.3728C58.5328 4.58933 58.9846 4.90667 59.3504 5.3248L58.432 6.2208C58.1259 5.91467 57.7936 5.69067 57.4352 5.5488C57.0843 5.39947 56.696 5.3248 56.2704 5.3248C55.8598 5.3248 55.479 5.392 55.128 5.5264C54.7771 5.6608 54.4747 5.8512 54.2208 6.0976C53.967 6.344 53.7691 6.6352 53.6272 6.9712C53.4928 7.3072 53.4256 7.6768 53.4256 8.08C53.4256 8.47573 53.4928 8.8416 53.6272 9.1776C53.7691 9.5136 53.967 9.80853 54.2208 10.0624C54.4747 10.3088 54.7734 10.4992 55.1168 10.6336C55.4603 10.768 55.8411 10.8352 56.2592 10.8352C56.6475 10.8352 57.0208 10.7755 57.3792 10.656C57.7451 10.5291 58.0923 10.32 58.4208 10.0288L59.2496 11.1152C58.839 11.4437 58.3611 11.6939 57.816 11.8656C57.2784 12.0299 56.7334 12.112 56.1808 12.112ZM57.872 10.9248V7.9904H59.2496V11.1152L57.872 10.9248ZM61.17 12V4.16H62.626V12H61.17ZM64.7466 12V4.16H68.1738C69.025 4.16 69.7716 4.32427 70.4138 4.6528C71.0559 4.98133 71.5562 5.4368 71.9146 6.0192C72.273 6.6016 72.4522 7.28853 72.4522 8.08C72.4522 8.864 72.273 9.55093 71.9146 10.1408C71.5562 10.7232 71.0559 11.1787 70.4138 11.5072C69.7716 11.8357 69.025 12 68.1738 12H64.7466ZM66.2026 10.768H68.1066C68.6964 10.768 69.2042 10.656 69.6298 10.432C70.0628 10.208 70.3951 9.8944 70.6266 9.4912C70.8655 9.088 70.985 8.6176 70.985 8.08C70.985 7.53493 70.8655 7.06453 70.6266 6.6688C70.3951 6.2656 70.0628 5.952 69.6298 5.728C69.2042 5.504 68.6964 5.392 68.1066 5.392H66.2026V10.768ZM73.9997 12V4.16H77.2253C77.9197 4.16 78.5133 4.272 79.0061 4.496C79.5064 4.72 79.8909 5.04107 80.1597 5.4592C80.4285 5.87733 80.5629 6.37387 80.5629 6.9488C80.5629 7.52373 80.4285 8.02027 80.1597 8.4384C79.8909 8.84907 79.5064 9.1664 79.0061 9.3904C78.5133 9.60693 77.9197 9.7152 77.2253 9.7152H74.8061L75.4557 9.0544V12H73.9997ZM79.1293 12L77.1469 9.1552H78.7037L80.6973 12H79.1293ZM75.4557 9.2112L74.8061 8.5168H77.1581C77.8002 8.5168 78.2818 8.37867 78.6029 8.1024C78.9314 7.82613 79.0957 7.4416 79.0957 6.9488C79.0957 6.44853 78.9314 6.064 78.6029 5.7952C78.2818 5.5264 77.8002 5.392 77.1581 5.392H74.8061L75.4557 4.6752V9.2112ZM82.1919 12V4.16H83.6479V12H82.1919ZM87.0676 10.152L86.9892 8.4272L91.0996 4.16H92.7348L89.3188 7.7888L88.5124 8.6736L87.0676 10.152ZM85.7684 12V4.16H87.2244V12H85.7684ZM91.234 12L88.2324 8.4272L89.1956 7.3632L92.9364 12H91.234ZM95.227 10.152L95.1486 8.4272L99.259 4.16H100.894L97.4782 7.7888L96.6718 8.6736L95.227 10.152ZM93.9278 12V4.16H95.3838V12H93.9278ZM99.3934 12L96.3918 8.4272L97.355 7.3632L101.096 12H99.3934ZM21.5856 19.7664H25.4944V20.9984H21.5856V19.7664ZM21.7088 24H20.2528V16.16H25.976V17.3808H21.7088V24ZM25.9362 24L29.4642 16.16H30.8978L34.437 24H32.9138L29.8786 16.9328H30.461L27.437 24H25.9362ZM27.5602 22.1856L27.9522 21.0432H32.1858L32.5778 22.1856H27.5602ZM35.4341 24V16.16H39.1077C40.0485 16.16 40.7653 16.3467 41.2581 16.72C41.7509 17.0859 41.9973 17.5787 41.9973 18.1984C41.9973 18.6165 41.9002 18.9749 41.7061 19.2736C41.5119 19.5648 41.2506 19.7925 40.9221 19.9568C40.601 20.1136 40.2501 20.192 39.8693 20.192L40.0709 19.7888C40.5114 19.7888 40.9071 19.8709 41.2581 20.0352C41.609 20.192 41.8853 20.4235 42.0869 20.7296C42.2959 21.0357 42.4005 21.4165 42.4005 21.872C42.4005 22.544 42.1429 23.0667 41.6277 23.44C41.1125 23.8133 40.3471 24 39.3317 24H35.4341ZM36.8901 22.8576H39.2421C39.7871 22.8576 40.2053 22.768 40.4965 22.5888C40.7877 22.4096 40.9333 22.1221 40.9333 21.7264C40.9333 21.3381 40.7877 21.0544 40.4965 20.8752C40.2053 20.6885 39.7871 20.5952 39.2421 20.5952H36.7781V19.464H38.9509C39.4586 19.464 39.8469 19.3744 40.1157 19.1952C40.3919 19.016 40.5301 18.7472 40.5301 18.3888C40.5301 18.0229 40.3919 17.7504 40.1157 17.5712C39.8469 17.392 39.4586 17.3024 38.9509 17.3024H36.8901V22.8576ZM43.9544 24V16.16H47.18C47.8744 16.16 48.468 16.272 48.9608 16.496C49.461 16.72 49.8456 17.0411 50.1144 17.4592C50.3832 17.8773 50.5176 18.3739 50.5176 18.9488C50.5176 19.5237 50.3832 20.0203 50.1144 20.4384C49.8456 20.8491 49.461 21.1664 48.9608 21.3904C48.468 21.6069 47.8744 21.7152 47.18 21.7152H44.7608L45.4104 21.0544V24H43.9544ZM49.084 24L47.1016 21.1552H48.6584L50.652 24H49.084ZM45.4104 21.2112L44.7608 20.5168H47.1128C47.7549 20.5168 48.2365 20.3787 48.5576 20.1024C48.8861 19.8261 49.0504 19.4416 49.0504 18.9488C49.0504 18.4485 48.8861 18.064 48.5576 17.7952C48.2365 17.5264 47.7549 17.392 47.1128 17.392H44.7608L45.4104 16.6752V21.2112ZM52.1466 24V16.16H53.6026V24H52.1466ZM57.0223 22.152L56.9439 20.4272L61.0543 16.16H62.6895L59.2735 19.7888L58.4671 20.6736L57.0223 22.152ZM55.7231 24V16.16H57.1791V24H55.7231ZM61.1887 24L58.1871 20.4272L59.1503 19.3632L62.8911 24H61.1887ZM65.1817 22.152L65.1033 20.4272L69.2137 16.16H70.8489L67.4329 19.7888L66.6265 20.6736L65.1817 22.152ZM63.8825 24V16.16H65.3385V24H63.8825ZM69.3481 24L66.3465 20.4272L67.3097 19.3632L71.0505 24H69.3481ZM73.3859 19.4192H77.2835V20.6176H73.3859V19.4192ZM73.4979 22.7792H77.9219V24H72.0419V16.16H77.7651V17.3808H73.4979V22.7792ZM79.545 24V16.16H80.7434L85.6602 22.1968H85.0666V16.16H86.5114V24H85.313L80.3962 17.9632H80.9898V24H79.545Z" fill="#05366C"/>
<path fill-rule="evenodd" clip-rule="evenodd" d="M11.5955 4.05381C11.8781 4.17472 12.0414 4.47314 11.9908 4.77631L10.7869 12H16.6665C16.919 12 17.15 12.1427 17.2629 12.3685C17.3757 12.5944 17.3514 12.8647 17.1998 13.0667L9.19994 23.7333C9.01552 23.9792 8.68691 24.0671 8.40434 23.9461C8.12176 23.8253 7.95848 23.5268 8.00902 23.2237L9.21296 16H3.3333C3.08079 16 2.84994 15.8573 2.73702 15.6315C2.62408 15.4056 2.64846 15.1353 2.79996 14.9333L10.7999 4.26672C10.9843 4.02083 11.3129 3.93289 11.5955 4.05381ZM4.66663 14.6667H9.99992C10.1959 14.6667 10.3819 14.7529 10.5086 14.9024C10.6353 15.0519 10.6897 15.2496 10.6575 15.4429L9.77366 20.7461L15.3332 13.3333H9.99992C9.80396 13.3333 9.61792 13.2471 9.49126 13.0976C9.36459 12.9481 9.31012 12.7504 9.34234 12.5571L10.2262 7.25389L4.66663 14.6667Z" fill="#05366C"/>
</svg>
