<svg width="72" height="72" viewBox="0 0 72 72" fill="none" xmlns="http://www.w3.org/2000/svg">
<path d="M12 63V55.5C12 46.3872 19.3873 39 28.5 39H38.5539C45.921 39 52.3953 34.1163 54.4191 27.0329L56.2362 20.6729C56.6883 19.0908 58.1343 18 59.7798 18C62.1774 18 63.9366 20.2532 63.3552 22.5792L58.0914 43.6344C57.45 46.2 55.1448 48 52.5 48M24 63V54M48 19.5C48 26.1274 42.6273 31.5 36 31.5C29.3726 31.5 24 26.1274 24 19.5C24 12.8726 29.3726 7.49998 36 7.49998C42.6273 7.49998 48 12.8726 48 19.5Z" stroke="#05366C" stroke-width="3.84375" stroke-linecap="round"/>
</svg>
