<svg width="18" height="18" viewBox="0 0 18 18" fill="none" xmlns="http://www.w3.org/2000/svg">
<path d="M9 2.25C9 2.25 4.3605 6.255 1.76775 8.424C1.6155 8.562 1.5 8.763 1.5 9C1.5 9.41475 1.83525 9.75 2.25 9.75H3.75V15C3.75 15.4147 4.08525 15.75 4.5 15.75H6.75C7.16475 15.75 7.5 15.414 7.5 15V12H10.5V15C10.5 15.414 10.8353 15.75 11.25 15.75H13.5C13.9147 15.75 14.25 15.4147 14.25 15V9.75H15.75C16.1647 9.75 16.5 9.41475 16.5 9C16.5 8.763 16.3845 8.562 16.2128 8.424C13.638 6.255 9 2.25 9 2.25Z" fill="#05366C"/>
</svg>
