<svg width="18" height="18" viewBox="0 0 18 18" fill="#05366C" xmlns="http://www.w3.org/2000/svg">
<path d="M4.9043 9.86482L11.6546 15.4901C11.8841 15.6799 12.1794 15.771 12.4759 15.7435C12.7725 15.7161 13.046 15.5722 13.2367 15.3434C13.4274 15.1147 13.5197 14.8197 13.4933 14.523C13.4669 14.2264 13.3241 13.9523 13.096 13.7608L7.38292 9.00013L13.096 4.23951C13.325 4.04823 13.4686 3.77391 13.4954 3.47681C13.5222 3.17971 13.4299 2.88412 13.2389 2.65497C13.0479 2.42583 12.7738 2.28187 12.4767 2.25472C12.1797 2.22757 11.884 2.31945 11.6546 2.51018L4.9043 8.13551C4.77773 8.24126 4.67592 8.3735 4.60605 8.52291C4.53619 8.67231 4.49998 8.83523 4.49998 9.00017C4.49998 9.1651 4.53619 9.32802 4.60605 9.47743C4.67592 9.62683 4.77773 9.75908 4.9043 9.86482Z" fill="white"/>
</svg>
