<svg width="47" height="47" viewBox="0 0 47 47" fill="none" xmlns="http://www.w3.org/2000/svg">
<path d="M23.9724 7.56275L23.5186 7.75183L16.2582 10.6636L15.5019 10.9661V19.0962L8.95993 21.9323L8.24146 22.2727V32.0288L8.84649 32.407L16.1069 36.4532L16.6741 36.7557L17.2413 36.491L23.9724 33.1255L30.7034 36.491L31.2706 36.7557L31.8378 36.4532L39.0982 32.407L39.7033 32.0288V22.2727L38.9848 21.9323L32.4428 19.0962V10.9661L31.6866 10.6636L24.4261 7.75183L23.9724 7.56275ZM23.9724 10.2098L27.9429 11.7602L23.9724 13.3106L20.0018 11.7602L23.9724 10.2098ZM17.922 13.5375L22.7623 15.3904V21.2895L17.922 19.134V13.5375ZM30.0227 13.5375V19.134L25.1824 21.2895V15.3904L30.0227 13.5375ZM16.7119 21.2517L21.0984 23.1802L16.7119 25.3356L12.3254 23.1424L16.7119 21.2517ZM31.2328 21.2517L35.6193 23.1424L31.2328 25.3356L26.8463 23.1802L28.2076 22.5752L31.2328 21.2517ZM10.6616 24.9953L15.5019 27.4155V33.3524L10.6616 30.6297V24.9953ZM37.2831 24.9953V30.6297L32.4428 33.3524V27.4155L37.2831 24.9953ZM22.7623 25.0709V31.0078L17.922 33.428V27.4155L22.7623 25.0709ZM25.1824 25.0709L30.0227 27.4155V33.428L25.1824 31.0078V25.0709Z" fill="#05366C"/>
<path d="M39 8L8 39" stroke="#B4D3F4" stroke-width="7"/>
<path d="M39 8L8 39" stroke="#05366C" stroke-width="3"/>
<circle cx="23.5" cy="23.5" r="22" stroke="#05366C" stroke-width="3"/>
</svg>
