<svg width="18" height="18" viewBox="0 0 18 18" fill="none" xmlns="http://www.w3.org/2000/svg">
<path d="M13.0956 8.13518L6.34536 2.50993C6.11588 2.32012 5.82054 2.22897 5.524 2.25646C5.22746 2.28394 4.9539 2.42781 4.76322 2.65657C4.57254 2.88533 4.48028 3.18033 4.50665 3.47696C4.53301 3.7736 4.67586 4.0477 4.90389 4.23925L10.617 8.99987L4.90389 13.7605C4.67498 13.9518 4.53134 14.2261 4.50455 14.5232C4.47776 14.8203 4.56999 15.1159 4.76099 15.345C4.95199 15.5742 5.22614 15.7181 5.52321 15.7453C5.82028 15.7724 6.11598 15.6806 6.34535 15.4898L13.0956 9.86449C13.2222 9.75874 13.324 9.6265 13.3939 9.47709C13.4637 9.32769 13.5 9.16477 13.5 8.99983C13.5 8.8349 13.4637 8.67198 13.3939 8.52257C13.324 8.37317 13.2222 8.24092 13.0956 8.13518Z" fill="white"/>
</svg>
